<?xml version="1.0" encoding="UTF-8" standalone="no"?>
<!-- Created with Inkscape (http://www.inkscape.org/) -->

<svg
   width="2874.6873"
   height="533.48584"
   viewBox="0 0 2874.6873 533.48584"
   version="1.1"
   id="svg1"
   inkscape:version="1.4 (e7c3feb1, 2024-10-09)"
   sodipodi:docname="dibujo.svg"
   xmlns:inkscape="http://www.inkscape.org/namespaces/inkscape"
   xmlns:sodipodi="http://sodipodi.sourceforge.net/DTD/sodipodi-0.dtd"
   xmlns="http://www.w3.org/2000/svg"
   xmlns:svg="http://www.w3.org/2000/svg">
  <sodipodi:namedview
     id="namedview1"
     pagecolor="#ffffff"
     bordercolor="#000000"
     borderopacity="0.25"
     inkscape:showpageshadow="2"
     inkscape:pageopacity="0.0"
     inkscape:pagecheckerboard="0"
     inkscape:deskcolor="#d1d1d1"
     inkscape:document-units="px"
     inkscape:zoom="0.21222889"
     inkscape:cx="864.63253"
     inkscape:cy="-494.74886"
     inkscape:window-width="1920"
     inkscape:window-height="967"
     inkscape:window-x="1470"
     inkscape:window-y="25"
     inkscape:window-maximized="1"
     inkscape:current-layer="layer1">
    <inkscape:page
       x="0"
       y="0"
       width="2874.6873"
       height="533.48584"
       id="page2"
       margin="0"
       bleed="0" />
  </sodipodi:namedview>
  <defs
     id="defs1" />
  <g
     inkscape:label="Capa 1"
     inkscape:groupmode="layer"
     id="layer1"
     transform="translate(-907.59185,1278.4749)">
    <g
       id="g3"
       inkscape:export-filename="Desktop/logo-taun-full-horizontal-blanco.svg"
       inkscape:export-xdpi="96"
       inkscape:export-ydpi="96">
      <path
         style="fill:#ffffff;stroke:none;stroke-width:0.638491"
         d="m -19.291566,-1385.5066 h -1.2259 c -6.2177,-7.9062 -17.0739,-12.6329 -25.7472,-17.4713 -19.1189,-10.6659 -38.5067,-18.9829 -60.076804,-23.227 -11.0836,-2.1808 -26.4399,-4.4453 -33.7168,6.3687 -5.0996,7.5788 -4.5996,17.1794 -5.7898,25.7472 -3.9248,28.2612 2.8694,59.8259 10.5581,87.0501 2.3745,8.4089 10.5478,22.8445 9.4337,31.4007 -1.2732,9.7779 -14.6381,22.3141 -19.4127,31.1283 -13.31,24.572 -25.7433,49.5806 -35.0448,76.0156 -34.5909,98.3112 -40.4196,204.31261 -14.4746,305.28851 15.8812,61.807 44.6726,118.7945 81.8398,170.4221 33.291504,46.2441 75.726904,86.1312 123.082404,117.7016 39.4268,26.2844 82.198,48.2639 127.510396,62.529 170.5516,53.6924 356.3881,11.5943 489.1973,-107.9953 38.0782,-34.2884 70.7485,-75.7572 96.3814,-120.0515 28.5105,-49.2654 48.60569,-104.5865 58.85089,-160.6137 16.3281,-89.2888 7.9766,-185.87401 -24.5212,-270.95891 -9.00979,-23.5889 -19.23139,-46.8068 -31.87729,-68.6592 -5.4368,-9.394 -19.8558,-23.8232 -21.3882,-34.3297 -0.6072,-4.1619 3.8661,-9.9116 5.6539,-13.4866 5.2318,-10.4638 10.4138,-20.9945 14.7466,-31.8775 13.0896,-32.8772 19.8551,-66.4496 19.8551,-101.7629 0,-13.2634 0.075,-31.5602 -7.9352,-42.912 -10.281,-14.5701 -31.0478,-7.6625 -44.785,-2.8608 -28.2832,9.886 -54.308,24.7018 -79.6938,40.3918 -10.7381,6.6368 -26.028,14.4074 -33.1038,24.998 -128.9099,-102.37 -325.8963,-125.3945 -475.7104,-59.1573 -33.062296,14.6177 -65.303596,30.8244 -94.4065963,52.5843 -9.23770003,6.9069 -21.7705997,14.1157 -28.1994997,23.7378 m 627.741996,163.0657 c 7.4352,-12.7311 19.0544,-23.5148 27.7226,-35.5557 19.6674,-27.3192 36.6762,-56.8504 45.6706,-89.5022 3.0366,-11.0227 6.194,-22.8329 6.3006,-34.3296 0.025,-3.1229 1.1467,-9.5107 -1.6345,-11.7497 -3.082,-2.4806 -9.156,2.0837 -11.8523,3.6441 -10.7988,6.2493 -20.6903,13.6788 -30.6514,21.1495 -39.596,29.6972 -77.4055,74.3757 -87.0499,124.2746 18.6561,-11.8363 32.5956,-36.692 53.9467,-44.1381 -8.6707,31.7482 -20.463,54.8472 -44.1382,78.4677 -7.402,7.3844 -16.9896,17.3612 -26.9736,20.843 v 3.6782 c 14.9757,3.0833 27.7187,7.3039 42.9122,2.4521 -5.353,20.8852 -32.2533,36.4378 -52.7207,36.7818 12.2947,23.2228 31.6614,38.8224 33.1038,67.4332 l -47.8166,-24.5212 c 23.8802,29.6005 38.0081,64.9579 38.0081,102.9889 -5.8863,-2.6673 -9.1183,-10.0399 -13.5207,-14.7127 -10.0236,-10.6392 -23.4345,-22.204 -37.9736,-25.7472 17.5515,33.4188 31.8313,63.09941 24.5213,101.76281 -6.3307,-3.0595 -11.3786,-15.0609 -15.7688,-20.843 -9.6598,-12.7223 -25.8174,-29.1949 -41.8563,-33.1035 17.9499,23.6022 28.6708,62.844 20.8429,91.9543 h -2.4518 c -11.2266,-28.7298 -43.4665,-64.2057 -73.5637,-73.5635 10.3615,21.2586 20.0039,44.0637 24.5213,67.4332 l -1.2259,1.2261 c -31.1341,-6.4099 -53.5055,-32.3485 -76.0162,-52.6183 -17.5961,-15.8448 -38.8693,-27.2681 -61.3027,-34.4318 11.7457,26.6232 35.8755,47.7272 39.234,78.4677 l -35.5556,-19.617 18.6292,42.9121 14.4746,22.069 c -18.4728,0 -35.2983,-5.471 -52.7208,-11.0345 6.5835,17.4103 -0.6979,27.6414 -13.4869,40.4599 -17.4857,17.5267 -38.9855,29.3701 -62.5286,36.7818 -42.2827,13.3111 -114.504896,10.4961 -142.597196,-29.4254 -17.6192,-25.0369 -17.0235,-55.6603 -15.5645,-84.598 h -1.2259 c -5.68,23.7167 -12.6594,43.76 -8.1057,68.6592 1.1474,6.274 11.445,25.5989 7.697,30.1407 -21.0516,25.5079 -70.4682,12.7652 -84.939,-11.7498 -19.9343,-33.7713 -13.1095,-83.2953 -2.9287,-118.9277 l 13.4868,7.3564 c -9.1668,-28.3342 -13.7722,-54.5262 6.6071,-79.69381 25.5466997,-31.5488 62.2796,-3.4256 65.73,29.42541 h 1.2266 c 1.3453,-26.68461 0.9073,-47.69341 -23.2954,-64.98111 3.6656,-10.0275 16.0626,-18.5142 22.8184,-26.9733 18.7295,-23.4523 34.1063,-52.4242 31.0262,-83.3719 -2.9907,-30.0402 -32.5068,-80.1957 -68.5573003,-57.0798 -20.3664997,13.0593 -27.5558997,38.3993 -31.8771997,60.7579 h -1.2266 c -11.5216,-40.3263 -6.2802,-80.7871 28.1995997,-108.6423 12.1000003,-9.7754 26.6014003,-11.4746 39.2339003,-19.1742 9.3705,-5.7118 17.4781,-16.8141 25.7472,-24.2147 l -28.1996,-4.9042 c 2.1881,-7.9754 11.6748,-12.4511 18.3911,-16.4156 25.1456,-14.8431 51.290496,-12.1325 78.467896,-6.8795 -8.1108,-13.0425 -16.6461,-24.5443 -29.4255,-33.4782 -6.9895,-4.886 -18.398696,-7.5932 -23.295296,-14.3381 32.114096,-10.255 67.885596,-8.4886 95.632396,12.7715 9.6553,7.3975 15.0965,19.7493 24.5213,26.4624 0,-18.8647 -1.2055,-35.0057 -11.5114,-51.4945 -4.6916,-7.5072 -13.6694,-12.5862 -16.6876,-20.843 32.9551,-8.8616 73.5529,18.9572 77.2414,52.7206 6.851,-4.9496 10.9801,-14.6441 17.1645,-20.8431 18.1498,-18.1914 52.484,-39.3721 79.6939,-29.4254 -4.8864,5.2429 -11.867,8.5296 -17.1646,13.5207 -13.6196,12.8313 -23.6592,28.7344 -29.4254,46.5562 14.9962,-7.9391 27.7858,-17.5831 44.1382,-23.2611 12.0885,-4.1973 24.3999,-4.6062 36.7815,-6.6412 7.1306,-1.1718 27.7724,-2.0904 29.4254,6.6072 -15.6966,6.1336 -32.8465,18.1573 -39.2339,34.3297 36.3684,-7.4879 69.6012,-9.3823 102.9891,10.5576 6.1059,3.6464 23.3732,10.3674 25.2364,17.7438 1.7181,6.8038 -6.8708,21.1918 -8.8208,28.0972 -5.0058,17.7244 -7.3254,40.4658 0.749,57.6248 34.7115,-71.2196 76.7918,-129.9727 145.9014,-171.8866 15.3046,-9.2821 31.9143,-19.186 49.0418,-24.6574 5.3429,-1.7067 14.2766,-5.675 19.3105,-1.4645 4.2855,3.5842 2.7589,11.6111 2.7589,16.5519 0,15.0935 -2.4173,29.4222 -5.6538,44.138 -9.4669,43.0494 -27.0209,85.0317 -55.5812,118.9277 -10.7056,12.706 -26.1724,29.0076 -42.98,33.1035 m -632.646296,-66.2071 c -15.8154,-22.1423 -34.0928,-40.5304 -55.1726,-57.6248 0.093,22.1331 7.9026,45.9996 16.4156,66.2072 3.3214,7.8832 12.5712,17.601 13.7595,25.7473 0.8147,5.5874 -5.6813,14.6429 -8.1057,19.6169 -12.8617,-4.7015 -24.7893,-25.003 -30.924,-36.7818 -20.315404,-39.0057 -24.972604,-79.5313 -24.248504,-122.6058 34.775304,0.5843 70.207104,30.9734 93.180004,53.9466 5.9194,5.9195 23.1164997,20.2463 23.0225997,29.3232 -0.066,6.4078 -22.6612997,18.9189 -27.9268997,22.1712 m 180.230496,56.3987 h 1.2266 l 26.8025,-46.5903 24.6917,-29.4253 c -36.8,7.5767 -52.7208,42.016 -52.7208,76.0156 m 50.2684,4.9042 h 1.2265 l 36.8837,-52.7205 28.0974,-28.1993 c -38.1243,1.9221 -66.2076,46.2448 -66.2076,80.9198 m -96.8584,0 13.7933,-33.1036 20.5364,-38.0078 c -27.0943,6.6027 -43.940196,45.9755 -34.3297,71.1114 m 142.2231,22.0691 c 14.6029,-9.3042 24.2052,-26.1889 39.2333,-35.9644 42.1634,-27.4256 94.5968,-24.9602 132.4146,9.0933 11.9807,10.7883 21.8664,23.4692 29.0845,37.9056 2.8151,5.6296 4.5359,16.6391 10.1495,19.6169 0,-44.519 -26.2152,-91.5467 -68.6594,-108.6423 -41.7758,-16.8263 -83.2132,-3.1595 -114.0236,27.7225 -12.8285,12.8583 -26.1685,31.6798 -28.1989,50.2684 m 0,153.2573 h 1.2259 l 2.4518,-4.9043 c 6.1863,1.1956 12.4563,-8.8382 18.1185,-6.3687 5.876,2.5625 12.0802,13.9424 17.4371,18.3568 13.605,11.2111 31.5683,16.6966 49.0425,16.2112 14.8187,-0.4115 31.0153,-6.1804 42.9123,-14.883 42.0784,-30.7798 51.4553,-98.8097 20.3321,-140.8263 -31.0683,-41.9419 -90.8777,-36.9613 -120.699,3.6781 -9.4407,12.8663 -17.6076,29.3399 -19.6846,45.3642 -1.4443,11.1384 -2.3465,23.0745 -1.2259,34.3296 0.6633,6.6647 3.9139,14.2312 3.4395,20.843 -0.7738,10.7865 -12.6261,17.4228 -13.3502,28.1994 M 57.950434,-1164.8161 c -5.0709,-3.941 -9.216,-9.3275 -15.9387,-10.728 -27.7979,-5.7912 -36.9539003,37.767 -34.0577003,57.3182 1.6103,10.8679 12.5406003,18.9089 13.8955003,28.1994 0.6519,4.4681 -7.4135,13.5693 -11.7157,13.9975 -12.7794003,1.272 -20.2676,-25.8962 -22.0688,-34.8405 -5.408,-26.8512 -0.5197,-63.1874 19.7191997,-83.2698 22.2233003,-22.0518 50.0608003,4.261 50.1662003,29.3232 m 285.671396,-26.5987 c 24.55,-0.9661 44.9223,20.2103 50.7108,42.5375 9.6234,37.1168 -6.2233,91.7269 -51.9367,94.3724 -80.1567,4.6388 -73.3281,-133.976 1.2259,-136.9099 m 381.3039,182.3081 h -1.2259 c -11.3498,-39.7252 -27.3178,-75.5666 -49.8597,-110.3452 -11.1512,-17.2046 -26.3818,-32.0061 -37.1902,-49.0424 16.8983,2.0591 32.0216,22.9366 41.5153,35.5557 28.0457,37.2788 46.7605,76.5594 46.7605,123.8319 m -377.6255,-157.5825 c -48.6875,3.2683 -49.4684,96.9222 2.4518,91.2732 45.6744,-4.9693 46.4476,-94.5558 -2.4518,-91.2732 m -241.5339,28.8464 c 24.9273,-2.6185 46.1903,-10.787 71.1118,-0.7492 11.8555,4.7751 20.8078,13.2798 31.8773,19.1401 -5.8901,-48.3378 -79.1977,-55.8893 -102.9891,-18.3909 m -61.302796,-19.9235 c 9.3035,1.4796 8.0156,20.2642 -2.4518,18.5612 -9.6584,-1.5713 -7.0029,-20.0649 2.4518,-18.5612 m 311.418596,10.5238 c 12.169,-4.0951 15.4055,17.654 3.6783,19.7531 -10.7291,1.9204 -13.2774,-16.5227 -3.6783,-19.7531 m 308.9668,78.0589 -24.5212,-1.1239 -34.3291,7.2543 c -1.7706,-9.3634 -12.4378,-30.5442 -9.3999,-39.1318 1.7597,-4.9755 12.2597,-7.2653 16.7559,-8.8889 6.1142,-2.2079 14.3412,-5.2088 20.8429,-2.8608 14.2422,5.143 26.3709,31.3458 30.6514,44.7511 m -592.185796,-13.4866 c 33.495196,-12.6663 68.211796,-14.8839 101.762596,-0.7492 10.583,4.4585 18.9913,14.1437 29.4255,17.914 -13.817,-42.7069 -67.7432,-57.1293 -105.440996,-38.2803 -8.9874,4.4938 -22.1441,11.258 -25.7471,21.1155 m -101.7632,-7.3563 14.7127,30.6514 c -24.6968,10.5842 -33.7857,37.8343 -46.59,58.8508 h -1.2259 c 0,-11.9905 3.3463,-23.587 8.5819,-34.3296 l -15.9386,17.1648 c -3.3904,-5.8848 0.032,-14.7699 2.0438,-20.843 5.7758,-17.4485 20.1233,-44.8072 38.4161,-51.4944 m 114.0235,105.44101 c 11.4424,-7.2597 19.678896,-19.48461 30.651396,-27.68851 27.434,-20.512 75.4657,-30.0871 90.6943,10.5236 2.9032,7.74101 4.4337,16.24631 3.61,24.52121 -1.2974,13.036 -8.4363,22.3594 -12.1581,34.3296 33.9275,-4.134 45.2607,-48.1344 32.7967,-74.78951 -23.6803,-50.6437 -94.6153,-46.8114 -126.2155,-7.3563 -8.675196,10.831 -18.659896,26.19991 -19.378796,40.45991 m 610.576796,8.5824 c -8.7128,-3.8807 -15.8166,-11.3141 -24.5205,-15.6664 -19.1407,-9.57001 -38.2239,-9.79551 -58.851,-7.6288 l -2.4524,-41.68591 c 15.2656,-8.7233 54.6433,-12.8864 68.2846,1.5326 3.8686,4.0891 5.1769,11.6478 6.9136,16.8583 5.0485,15.1455 8.958,30.70891 10.6257,46.59021 m -682.913896,53.9465 c 4.4828,-5.0897 4.5415,-14.2552 4.938,-20.843 0.9897,-16.439 1.6952,-51.1583 -18.42490033,-58.23771 -16.22149967,-5.7077 -19.73379967,25.64481 -14.78099967,34.94271 3.1452,5.9035 10.2234997,9.752 14.6788997,14.7126 7.568,8.4263 11.4634003,18.4303 13.5890003,29.4254 m 100.536696,-2.4521 c 13.7313,-8.7121 21.9174,-22.4677 38.0074,-28.9486 7.1696,-2.8877 21.92,1.1594 26.6672,-2.2137 10.5274,-7.4802 9.3111,-38.3915 -3.3719,-43.0142 -9.85,-3.59021 -22.1837,3.4334 -29.4255,9.4679 -18.1784,15.1489 -31.8772,40.7327 -31.8772,64.7086 m 568.8911,53.9466 c -9.9005,-20.8528 -18.5176,-39.1087 -38.0081,-53.0951 -7.9703,-5.7198 -16.5012,-10.2675 -25.7471,-13.5208 -3.1586,-1.1113 -10.6858,-1.9587 -12.5674,-4.9042 -1.5975,-2.501 0.4878,-6.8148 1.056,-9.3998 1.4877,-6.764 0.666,-25.6575 9.0589,-26.871 29.2997,-4.2362 66.0372,14.0464 77.9571,41.5837 6.7674,15.6332 -1.8886,53.0297 -11.7494,66.2072 m -785.9038,-105.441 11.545804,35.5557 18.6631,26.9732 -2.0093,36.7818 c -14.8884,-1.0008 -20.5275,-18.8848 -30.651404,-26.9733 l 10.115004,29.4254 22.2054,26.9733 9.3654,26.9733 c -12.1786,-1.484 -22.4385,-12.5534 -30.6514,-20.843 -35.526304,-35.8586 -36.035104,-94.6207 -8.582604,-134.8664 m 724.6004,181.4566 c 11.3351,-41.5034 -14.1732,-73.9097 -47.8159,-94.4065 l 23.2953,-33.1036 c 33.0387,9.44 79.8796,49.1875 65.3214,89.5023 -3.1759,8.7941 -13.3196,17.0075 -19.9573,23.261 -6.0618,5.7111 -13.1727,11.4594 -20.8435,14.7468 m -242.7592,-105.441 c 21.7955,17.6744 43.0343,35.1614 69.8854,44.5468 20.7119,7.2396 43.2155,0.5532 58.7487,17.9822 11.5573,12.9687 16.7425,30.8693 12.192,47.8162 -1.1972,4.4603 -3.6394,13.8059 -8.5143,15.5301 -8.043,2.8451 -24.1055,-4.7466 -31.7751,-7.3564 -36.5344,-12.4317 -68.4711,-40.9877 -87.2548,-74.3808 -5.3723,-9.5518 -19.5404,-33.2762 -13.2819,-44.1381 m 161.8395,128.7361 c 1.9499,-17.8461 9.4234,-31.746 3.6783,-50.2684 -2.5878,-8.3426 -6.9404,-16.5649 -12.5329,-23.2951 -2.0853,-2.5094 -7.1441,-5.9454 -6.5388,-9.7062 0.5938,-3.6917 7.7047,-5.0629 10.4891,-6.5391 10.4227,-5.5249 17.6958,-16.0303 29.4255,-9.0251 22.4883,13.4302 36.7821,35.746 36.7821,62.0522 0,8.3964 -1.6403,20.0988 -7.9358,26.3943 -11.9085,11.9084 -38.0923,10.3874 -53.3675,10.3874 m -232.9507,-41.686 c 0,33.545 -5.0243,62.0572 -21.15,91.9544 -6.1333,11.3722 -15.0403,20.9941 -21.7623,31.8775 15.1686,-4.334 34.1299,-11.9053 42.9123,-25.7472 8.0558,6.2066 -0.4297,23.858 -3.2697,31.8775 -8.3776,23.6548 -24.4484,46.3527 -44.5468,61.4732 -5.5153,4.1491 -20.592,16.5029 -28.0975,12.4309 -6.0611,-3.2887 -5.9322,-15.229 -6.2323,-21.1836 -10.1781,8.4912 -13.4868,26.6278 -13.4868,39.2339 -16.6569,-3.1495 -24.4203,-12.2224 -38.0074,-20.843 0.1832,10.8922 2.4269,19.8092 7.356,29.4254 -17.7117,6.4745 -41.3428,-15.787 -52.7201,-26.9733 l 6.1301,22.069 c -29.0187,-5.9745 -44.421696,-32.3926 -62.529196,-52.7205 l 3.6783,24.5212 c -13.1299,-0.7172 -24.043,-12.6648 -31.9456,-22.069 -22.2092,-26.4309 -31.0262,-62.1008 -34.3635003,-95.6326 -1.0146,-10.1953 -5.6705,-34.9237 0.9877,-43.7294 2.4576003,-3.2504 15.6596003,-2.9131 19.9573003,-4.0869 0,24.1977 0.7707,48.0139 12.5674,69.8853 28.2417,52.3623 97.614996,58.0293 146.820196,35.2492 54.6254,-25.2894 93.7751,-82.0562 115.2495,-137.012 h 2.4524 m -76.0161,63.7551 c -16.648,31.4461 -56.3085,51.9886 -90.7282,53.9806 -6.9366,0.4014 -34.1273,2.0647 -36.2707,-7.4245 -2.3586,-10.4425 15.8364,-25.3648 22.7845,-30.4471 26.2004,-19.1655 73.812,-33.4819 104.2144,-16.109 m 334.7139,51.4944 c 5.3486,6.072 3.3035,14.7152 2.5546,22.069 -2.1817,21.4227 -16.7317,55.0704 -40.562,60.0769 l 26.6665,-51.4944 11.3409,-30.6515 m -63.7546,29.4254 c 12.5106,34.2243 -22.8847,83.2615 -53.9466,93.1804 l 32.6268,-46.5902 z"
         id="path5"
         inkscape:export-filename="loog-taun-cuadrado-blanco.svg"
         inkscape:export-xdpi="96"
         inkscape:export-ydpi="96" />
      <text
         xml:space="preserve"
         style="font-style:normal;font-variant:normal;font-weight:normal;font-stretch:normal;font-family:'Cal Sans';-inkscape-font-specification:'Cal Sans';text-align:start;writing-mode:lr-tb;direction:ltr;text-anchor:start;fill:#ffffff"
         x="1427.7039"
         y="-1342.8896"
         id="text3"><tspan
           sodipodi:role="line"
           id="tspan1"
           x="1427.7039"
           y="-1342.8896">vv</tspan></text>
      <path
         style="font-size:748.227px;font-family:'Cal Sans';-inkscape-font-specification:'Cal Sans';fill:#ffffff;stroke-width:62.3523"
         d="M 1057.2373,-754.71594 V -1184.1982 H 907.59187 v -94.2766 h 404.04253 v 94.2766 h -149.6453 v 429.48226 z m 370.3727,9.72695 q -53.1241,0 -97.2695,-26.93617 -43.3971,-27.6844 -69.5851,-73.32625 -25.4397,-46.39007 -25.4397,-102.5071 0,-41.90071 14.9645,-78.56379 14.9646,-37.4114 41.1525,-65.0958 26.188,-28.4326 60.6064,-44.1454 35.1667,-16.461 75.5709,-16.461 50.8795,0 79.3121,19.4539 28.4326,18.7057 44.1454,50.1312 v -61.3546 h 100.2624 v 389.07806 h -98.0177 v -63.5993 q -15.7128,32.92199 -44.8936,53.12412 -28.4327,20.20213 -80.8086,20.20213 z m 16.461,-91.28369 q 33.6703,0 57.6135,-14.96454 24.6915,-15.71277 38.1596,-41.15249 13.4681,-25.43972 13.4681,-55.3688 0,-30.6773 -13.4681,-56.11699 -13.4681,-25.4397 -38.1596,-41.1525 -23.9432,-15.7128 -57.6135,-15.7128 -32.1737,0 -56.8652,15.7128 -23.9433,14.9645 -37.4114,40.4042 -13.4681,25.43976 -13.4681,56.11707 0,29.18085 13.4681,55.36879 13.4681,25.43972 37.4114,41.15249 24.6915,15.71277 56.8652,15.71277 z m 411.5243,90.53546 q -41.9007,0 -75.5709,-19.4539 -33.6702,-19.4539 -53.1241,-55.3688 -19.4539,-36.66312 -19.4539,-85.29787 V -1143.794 h 101.0106 v 213.24472 q 0,50.1312 20.2021,73.32624 20.2022,23.19504 57.6135,23.19504 32.1738,0 56.117,-23.19504 24.6915,-23.19504 24.6915,-73.32624 V -1143.794 h 101.0107 v 389.07806 h -98.0178 v -58.36171 q -14.2163,33.67022 -41.9007,50.87944 -26.9361,16.46099 -72.578,16.46099 z m 272.3541,-8.97872 V -1143.794 h 99.5142 v 56.8653 q 30.6773,-65.844 118.9681,-65.844 41.9007,0 75.5709,19.4539 33.6702,19.4539 53.1241,55.3688 19.4539,35.9149 19.4539,85.29787 v 237.93619 H 2393.57 v -213.24469 q 0,-50.87947 -23.1951,-73.32627 -23.195,-23.195 -60.6063,-23.195 -32.1738,0 -56.8653,23.195 -23.9433,22.4468 -23.9433,73.32627 v 213.24469 z m 476.6209,9.72695 q -29.1809,0 -48.6348,-19.4539 -18.7056,-19.4539 -18.7056,-46.39008 0,-26.18794 18.7056,-45.64184 19.4539,-19.4539 48.6348,-19.4539 29.1808,0 47.8865,19.4539 18.7057,19.4539 18.7057,45.64184 0,26.93618 -18.7057,46.39008 -18.7057,19.4539 -47.8865,19.4539 z m 112.982,-9.72695 V -1143.794 h 99.5142 v 56.8653 q 30.6773,-65.844 118.9681,-65.844 41.1525,0 74.0745,19.4539 32.922,18.7057 52.3759,53.8723 19.4539,-35.1666 49.3829,-53.8723 30.6773,-19.4539 82.305,-19.4539 41.9007,0 75.5709,19.4539 33.6702,19.4539 53.1241,55.3688 19.4539,35.9149 19.4539,85.29787 v 237.93619 h -101.0106 v -213.24469 q 0,-50.87947 -21.6986,-73.32627 -21.6986,-23.195 -56.117,-23.195 -35.1667,0 -57.6135,20.2021 -21.6986,20.2021 -21.6986,76.31917 v 213.24469 h -101.0106 v -213.24469 q 0,-50.87947 -23.195,-73.32627 -23.1951,-23.195 -60.6064,-23.195 -32.1738,0 -56.8653,23.195 -23.9432,22.4468 -23.9432,73.32627 v 213.24469 z m 867.1949,9.72695 q -59.8582,0 -105.5,-27.6844 -45.6419,-27.6844 -71.0816,-73.32625 -24.6915,-46.39007 -24.6915,-102.50709 0,-56.11707 26.188,-102.50707 26.1879,-47.1383 71.0815,-74.8227 45.6419,-27.6844 104.0036,-27.6844 58.3617,0 102.5071,27.6844 44.8936,27.6844 69.5851,74.8227 25.4397,46.39 25.4397,102.50707 0,8.23049 -0.7482,17.20922 -0.7482,8.97872 -2.2447,18.70567 h -291.0603 q 8.2305,34.41844 32.922,56.11703 25.4397,21.69858 63.5993,21.69858 32.922,0 56.8652,-14.96454 24.6915,-14.96454 38.1596,-37.41135 l 78.5638,59.10993 q -23.195,36.66313 -69.5851,59.85816 -46.39,23.19504 -104.0035,23.19504 z m -1.4965,-321.73761 q -35.9149,0 -61.3546,21.6986 -25.4397,21.6986 -33.6702,56.86524 h 192.2943 q -8.2305,-32.17374 -34.4184,-55.36884 -25.4397,-23.195 -62.8511,-23.195 z"
         id="text2"
         aria-label="Taun.me" />
    </g>
  </g>
</svg>
